<svg xmlns="http://www.w3.org/2000/svg" version="1.1" xmlns:xlink="http://www.w3.org/1999/xlink" xmlns:svgjs="http://svgjs.dev/svgjs" width="2000" height="1247" viewBox="0 0 2000 1247"><g transform="matrix(1,0,0,1,-1.2121212121212466,0.504858299595071)"><svg viewBox="0 0 396 247" data-background-color="#ffffff" preserveAspectRatio="xMidYMid meet" height="1247" width="2000" xmlns="http://www.w3.org/2000/svg" xmlns:xlink="http://www.w3.org/1999/xlink"><g id="tight-bounds" transform="matrix(1,0,0,1,0.2400000000000091,-0.09999999999999432)"><svg viewBox="0 0 395.52 247.2" height="247.2" width="395.52"><g><svg></svg></g><g><svg viewBox="0 0 395.52 247.2" height="247.2" width="395.52"><g><path xmlns="http://www.w3.org/2000/svg" d="M55.039 247.2l50.789-87.969 0 42.237h183.864v-42.237l50.789 87.969zM197.76 0l26.403 45.732-52.806 0z" fill="#915eff" fill-rule="nonzero" stroke="none" stroke-width="1" stroke-linecap="butt" stroke-linejoin="miter" stroke-miterlimit="10" stroke-dasharray="" stroke-dashoffset="0" font-family="none" font-weight="none" font-size="none" text-anchor="none" style="mix-blend-mode: normal" data-fill-palette-color="tertiary"></path></g><g transform="matrix(1,0,0,1,128.07588087879574,67.97999999999999)"><svg viewBox="0 0 139.3682382424085 111.24" height="111.24" width="139.3682382424085"><g><svg viewBox="0 0 184.49007341184003 147.25504193170048" height="111.24" width="139.3682382424085"><g><svg viewBox="0 0 184.49007341184003 147.25504193170048" height="147.25504193170048" width="184.49007341184003"><g id="textblocktransform"><svg viewBox="0 0 184.49007341184003 147.25504193170048" height="147.25504193170048" width="184.49007341184003" id="textblock"><g><svg viewBox="0 0 184.49007341184003 110.5525368" height="110.5525368" width="184.49007341184003"><g transform="matrix(1,0,0,1,0,0)"><svg width="184.49007341184003" viewBox="-12.5 -31.25 52.150001525878906 31.25" height="110.5525368" data-palette-color="#915eff"><path d="M21.55-4.95L19.6 0 9.6 0 22.75-31.25 37.45-31.25 39.65 0 29.6 0 29.4-4.95 21.55-4.95ZM24.65-12.9L28.65-12.9 28.65-21.65 28.15-21.65 24.65-12.9ZM8.95-2.4L8-0.2-12.5-2.4 8.95-2.4ZM11-7.25L10.05-5.05-10.45-7.25 11-7.25ZM13-12.05L12.1-9.85-8.4-12.05 13-12.05ZM15.05-16.85L14.1-14.65-6.35-16.85 15.05-16.85ZM17.05-21.65L16.15-19.45-4.3-21.65 17.05-21.65ZM21.1-31.25L20.2-29.1-0.2-31.25 21.1-31.25ZM19.05-26.45L18.15-24.3-2.25-26.45 19.05-26.45ZM-0.2-31.25L20.2-29.1 21.1-31.25-0.2-31.25Z" opacity="1" transform="matrix(1,0,0,1,0,0)" fill="#915eff" class="undefined-text-0" data-fill-palette-color="primary" id="text-0"></path></svg></g></svg></g><g transform="matrix(1,0,0,1,76.17595131174876,136.6513374775968)"><svg viewBox="0 0 108.31412210009127 10.603704454103696" height="10.603704454103696" width="108.31412210009127"><g transform="matrix(1,0,0,1,0,0)"><svg width="108.31412210009127" viewBox="6.099999904632568 -37.099998474121094 478.0099792480469 46.79999923706055" height="10.603704454103696" data-palette-color="#ffffff"><path d="M29.5-32.7L8.65-32.7 8.65-17.75 27.3-17.75 27.3-15.45 8.65-15.45 8.65 0 6.1 0 6.1-35 29.5-35 29.5-32.7ZM56.25-26.1L58.75-26.1 58.75 0 56.35 0 56.35-5.6Q55.05-2.85 52.5-1.33 49.95 0.2 46.5 0.2L46.5 0.2Q41.4 0.2 38.5-2.65 35.6-5.5 35.6-10.85L35.6-10.85 35.6-26.1 38.1-26.1 38.1-11.05Q38.1-6.65 40.35-4.35 42.6-2.05 46.7-2.05L46.7-2.05Q51.1-2.05 53.67-4.8 56.25-7.55 56.25-12.2L56.25-12.2 56.25-26.1ZM69.34 0L69.34-37.1 71.84-37.1 71.84 0 69.34 0ZM82.39 0L82.39-37.1 84.89-37.1 84.89 0 82.39 0ZM102.04 0.2Q98.89 0.2 96.04-0.75 93.19-1.7 91.59-3.15L91.59-3.15 92.74-5.15Q94.34-3.8 96.86-2.9 99.39-2 102.14-2L102.14-2Q106.09-2 107.97-3.3 109.84-4.6 109.84-6.9L109.84-6.9Q109.84-8.55 108.81-9.5 107.79-10.45 106.29-10.9 104.79-11.35 102.14-11.85L102.14-11.85Q99.04-12.4 97.14-13.05 95.24-13.7 93.89-15.15 92.54-16.6 92.54-19.15L92.54-19.15Q92.54-22.25 95.11-24.28 97.69-26.3 102.44-26.3L102.44-26.3Q104.94-26.3 107.39-25.6 109.84-24.9 111.39-23.75L111.39-23.75 110.24-21.75Q108.64-22.9 106.59-23.5 104.54-24.1 102.39-24.1L102.39-24.1Q98.74-24.1 96.89-22.75 95.04-21.4 95.04-19.2L95.04-19.2Q95.04-17.45 96.09-16.48 97.14-15.5 98.67-15.03 100.19-14.55 102.94-14L102.94-14Q105.99-13.45 107.87-12.83 109.74-12.2 111.04-10.8 112.34-9.4 112.34-6.95L112.34-6.95Q112.34-3.7 109.64-1.75 106.94 0.2 102.04 0.2L102.04 0.2ZM131.24-3.4L132.29-1.65Q131.34-0.75 129.91-0.28 128.49 0.2 126.94 0.2L126.94 0.2Q123.54 0.2 121.69-1.68 119.84-3.55 119.84-6.9L119.84-6.9 119.84-23.95 115.04-23.95 115.04-26.1 119.84-26.1 119.84-31.8 122.34-31.8 122.34-26.1 130.64-26.1 130.64-23.95 122.34-23.95 122.34-7.15Q122.34-4.6 123.56-3.28 124.79-1.95 127.19-1.95L127.19-1.95Q129.64-1.95 131.24-3.4L131.24-3.4ZM148.03-26.3Q152.88-26.3 155.49-23.83 158.09-21.35 158.09-16.55L158.09-16.55 158.09 0 155.69 0 155.69-4.65Q154.44-2.35 152.03-1.07 149.63 0.2 146.28 0.2L146.28 0.2Q141.94 0.2 139.41-1.85 136.88-3.9 136.88-7.25L136.88-7.25Q136.88-10.5 139.21-12.53 141.53-14.55 146.63-14.55L146.63-14.55 155.59-14.55 155.59-16.65Q155.59-20.3 153.61-22.2 151.63-24.1 147.84-24.1L147.84-24.1Q145.24-24.1 142.86-23.2 140.49-22.3 138.84-20.8L138.84-20.8 137.59-22.6Q139.53-24.35 142.28-25.33 145.03-26.3 148.03-26.3L148.03-26.3ZM146.63-1.85Q149.88-1.85 152.16-3.35 154.44-4.85 155.59-7.7L155.59-7.7 155.59-12.6 146.69-12.6Q142.84-12.6 141.11-11.2 139.38-9.8 139.38-7.35L139.38-7.35Q139.38-4.8 141.28-3.33 143.19-1.85 146.63-1.85L146.63-1.85ZM178.78 0.2Q174.98 0.2 171.98-1.5 168.98-3.2 167.28-6.23 165.58-9.25 165.58-13.05L165.58-13.05Q165.58-16.9 167.28-19.93 168.98-22.95 171.98-24.63 174.98-26.3 178.78-26.3L178.78-26.3Q181.93-26.3 184.51-25.08 187.08-23.85 188.68-21.5L188.68-21.5 186.83-20.15Q185.43-22.1 183.36-23.08 181.28-24.05 178.78-24.05L178.78-24.05Q175.73-24.05 173.31-22.68 170.88-21.3 169.51-18.8 168.13-16.3 168.13-13.05L168.13-13.05Q168.13-9.8 169.51-7.3 170.88-4.8 173.31-3.43 175.73-2.05 178.78-2.05L178.78-2.05Q181.28-2.05 183.36-3.03 185.43-4 186.83-5.95L186.83-5.95 188.68-4.6Q187.08-2.25 184.51-1.03 181.93 0.2 178.78 0.2L178.78 0.2ZM216.13 0L205.03-13.95 198.23-7.75 198.23 0 195.73 0 195.73-37.1 198.23-37.1 198.23-10.85 214.93-26.1 218.13-26.1 206.88-15.55 219.23 0 216.13 0ZM238.78 0L238.78-35 252.63-35Q258.08-35 262.3-32.75 266.53-30.5 268.88-26.53 271.23-22.55 271.23-17.5L271.23-17.5Q271.23-12.45 268.88-8.47 266.53-4.5 262.3-2.25 258.08 0 252.63 0L252.63 0 238.78 0ZM241.33-2.3L252.43-2.3Q257.28-2.3 260.98-4.23 264.68-6.15 266.68-9.6 268.68-13.05 268.68-17.5L268.68-17.5Q268.68-21.95 266.68-25.4 264.68-28.85 260.98-30.78 257.28-32.7 252.43-32.7L252.43-32.7 241.33-32.7 241.33-2.3ZM301.37-13.15L301.32-12.45 278.87-12.45Q278.97-9.4 280.42-7.03 281.87-4.65 284.35-3.35 286.82-2.05 289.92-2.05L289.92-2.05Q292.47-2.05 294.65-2.98 296.82-3.9 298.27-5.7L298.27-5.7 299.72-4.05Q298.02-2 295.45-0.9 292.87 0.2 289.87 0.2L289.87 0.2Q285.97 0.2 282.92-1.5 279.87-3.2 278.15-6.2 276.42-9.2 276.42-13.05L276.42-13.05Q276.42-16.85 278.05-19.88 279.67-22.9 282.52-24.6 285.37-26.3 288.92-26.3L288.92-26.3Q292.47-26.3 295.3-24.63 298.12-22.95 299.75-19.95 301.37-16.95 301.37-13.15L301.37-13.15ZM288.92-24.1Q286.17-24.1 283.97-22.88 281.77-21.65 280.45-19.43 279.12-17.2 278.92-14.4L278.92-14.4 298.92-14.4Q298.77-17.2 297.42-19.4 296.07-21.6 293.87-22.85 291.67-24.1 288.92-24.1L288.92-24.1ZM327.02-26.1L329.57-26.1 317.77 0 315.22 0 303.47-26.1 306.12-26.1 316.52-2.75 327.02-26.1ZM356.37-13.15L356.32-12.45 333.87-12.45Q333.97-9.4 335.42-7.03 336.87-4.65 339.34-3.35 341.82-2.05 344.92-2.05L344.92-2.05Q347.47-2.05 349.64-2.98 351.82-3.9 353.27-5.7L353.27-5.7 354.72-4.05Q353.02-2 350.44-0.9 347.87 0.2 344.87 0.2L344.87 0.2Q340.97 0.2 337.92-1.5 334.87-3.2 333.14-6.2 331.42-9.2 331.42-13.05L331.42-13.05Q331.42-16.85 333.04-19.88 334.67-22.9 337.52-24.6 340.37-26.3 343.92-26.3L343.92-26.3Q347.47-26.3 350.29-24.63 353.12-22.95 354.74-19.95 356.37-16.95 356.37-13.15L356.37-13.15ZM343.92-24.1Q341.17-24.1 338.97-22.88 336.77-21.65 335.44-19.43 334.12-17.2 333.92-14.4L333.92-14.4 353.92-14.4Q353.77-17.2 352.42-19.4 351.07-21.6 348.87-22.85 346.67-24.1 343.92-24.1L343.92-24.1ZM364.12 0L364.12-37.1 366.62-37.1 366.62 0 364.12 0ZM387.36 0.2Q383.66 0.2 380.69-1.5 377.71-3.2 376.01-6.23 374.31-9.25 374.31-13.05L374.31-13.05Q374.31-16.85 376.01-19.88 377.71-22.9 380.69-24.6 383.66-26.3 387.36-26.3L387.36-26.3Q391.06-26.3 394.04-24.6 397.01-22.9 398.71-19.88 400.41-16.85 400.41-13.05L400.41-13.05Q400.41-9.25 398.71-6.23 397.01-3.2 394.04-1.5 391.06 0.2 387.36 0.2L387.36 0.2ZM387.36-2.05Q390.36-2.05 392.74-3.45 395.11-4.85 396.49-7.35 397.86-9.85 397.86-13.05L397.86-13.05Q397.86-16.25 396.49-18.75 395.11-21.25 392.74-22.65 390.36-24.05 387.36-24.05L387.36-24.05Q384.36-24.05 381.99-22.65 379.61-21.25 378.24-18.75 376.86-16.25 376.86-13.05L376.86-13.05Q376.86-9.85 378.24-7.35 379.61-4.85 381.99-3.45 384.36-2.05 387.36-2.05L387.36-2.05ZM421.26-26.3Q424.91-26.3 427.86-24.6 430.81-22.9 432.49-19.9 434.16-16.9 434.16-13.05L434.16-13.05Q434.16-9.2 432.49-6.18 430.81-3.15 427.86-1.48 424.91 0.2 421.26 0.2L421.26 0.2Q417.81 0.2 415.01-1.43 412.21-3.05 410.66-5.95L410.66-5.95 410.66 9.7 408.16 9.7 408.16-26.1 410.56-26.1 410.56-19.95Q412.11-22.95 414.94-24.63 417.76-26.3 421.26-26.3L421.26-26.3ZM421.11-2.05Q424.11-2.05 426.51-3.45 428.91-4.85 430.29-7.35 431.66-9.85 431.66-13.05L431.66-13.05Q431.66-16.25 430.29-18.75 428.91-21.25 426.51-22.65 424.11-24.05 421.11-24.05L421.11-24.05Q418.11-24.05 415.74-22.65 413.36-21.25 411.99-18.75 410.61-16.25 410.61-13.05L410.61-13.05Q410.61-9.85 411.99-7.35 413.36-4.85 415.74-3.45 418.11-2.05 421.11-2.05L421.11-2.05ZM464.01-13.15L463.96-12.45 441.51-12.45Q441.61-9.4 443.06-7.03 444.51-4.65 446.98-3.35 449.46-2.05 452.56-2.05L452.56-2.05Q455.11-2.05 457.28-2.98 459.46-3.9 460.91-5.7L460.91-5.7 462.36-4.05Q460.66-2 458.08-0.9 455.51 0.2 452.51 0.2L452.51 0.2Q448.61 0.2 445.56-1.5 442.51-3.2 440.78-6.2 439.06-9.2 439.06-13.05L439.06-13.05Q439.06-16.85 440.68-19.88 442.31-22.9 445.16-24.6 448.01-26.3 451.56-26.3L451.56-26.3Q455.11-26.3 457.93-24.63 460.76-22.95 462.38-19.95 464.01-16.95 464.01-13.15L464.01-13.15ZM451.56-24.1Q448.81-24.1 446.61-22.88 444.41-21.65 443.08-19.43 441.76-17.2 441.56-14.4L441.56-14.4 461.56-14.4Q461.41-17.2 460.06-19.4 458.71-21.6 456.51-22.85 454.31-24.1 451.56-24.1L451.56-24.1ZM474.16-20.4Q475.36-23.25 477.91-24.78 480.46-26.3 484.11-26.3L484.11-26.3 484.11-23.85 483.51-23.9Q479.16-23.9 476.71-21.18 474.26-18.45 474.26-13.6L474.26-13.6 474.26 0 471.76 0 471.76-26.1 474.16-26.1 474.16-20.4Z" opacity="1" transform="matrix(1,0,0,1,0,0)" fill="#ffffff" class="undefined-text-1" data-fill-palette-color="secondary" id="text-1"></path></svg></g></svg></g></svg></g></svg></g></svg></g></svg></g></svg></g><defs></defs></svg><rect width="395.52" height="247.2" fill="none" stroke="none" visibility="hidden"></rect></g></svg></g></svg>